<?xml version="1.0" standalone="no"?>
<!DOCTYPE svg PUBLIC "-//W3C//DTD SVG 20010904//EN"
 "http://www.w3.org/TR/2001/REC-SVG-20010904/DTD/svg10.dtd">
<svg version="1.0" xmlns="http://www.w3.org/2000/svg"
 width="740.000000pt" height="740.000000pt" viewBox="0 0 740.000000 740.000000"
 preserveAspectRatio="xMidYMid meet">
<metadata>
Created by potrace 1.14, written by Peter Selinger 2001-2017
</metadata>
<g transform="translate(0.000000,740.000000) scale(0.100000,-0.100000)"
fill="#000000" stroke="none">
<path d="M3400 4965 c-494 -69 -931 -286 -1280 -635 -113 -113 -246 -280 -327
-410 -101 -163 -217 -432 -210 -486 3 -19 -6 -81 -19 -137 -40 -174 -56 -311
-43 -381 6 -34 14 -65 18 -71 4 -5 13 -30 20 -55 7 -25 29 -74 47 -110 19 -35
32 -70 29 -78 -2 -7 -1 -11 4 -8 8 5 15 -4 21 -29 1 -5 11 -22 21 -37 10 -14
19 -31 19 -37 0 -6 4 -11 8 -11 4 0 14 -16 21 -35 7 -19 16 -35 20 -35 5 0 14
-13 21 -30 7 -16 16 -30 21 -30 5 0 9 -7 9 -16 0 -9 5 -12 12 -8 7 5 9 2 6 -8
-4 -8 2 -20 13 -26 10 -7 19 -16 19 -21 0 -12 43 -62 124 -144 38 -39 63 -67
55 -63 -8 4 -6 1 5 -6 10 -7 33 -28 51 -45 18 -18 37 -33 44 -33 7 0 9 -4 6
-10 -3 -5 -2 -10 4 -10 5 0 23 -14 40 -30 17 -17 33 -31 36 -30 20 1 25 -1 21
-9 -6 -10 63 -61 83 -61 7 0 10 -4 7 -8 -2 -4 4 -14 16 -21 16 -10 19 -10 13
1 -3 7 0 5 8 -4 8 -10 19 -18 26 -18 6 0 11 -4 11 -10 0 -5 7 -10 15 -10 8 0
15 -5 15 -11 0 -5 5 -7 10 -4 6 3 10 2 10 -3 0 -13 59 -53 80 -55 11 -1 20 -4
20 -8 0 -11 101 -59 123 -59 10 0 15 -5 12 -10 -3 -6 0 -10 8 -10 8 0 29 -8
48 -17 19 -10 39 -18 44 -19 6 -1 32 -11 59 -23 26 -12 63 -23 82 -24 19 -1
34 -5 34 -9 0 -4 15 -10 33 -13 19 -4 45 -16 58 -28 14 -12 46 -41 72 -65 46
-42 97 -56 112 -32 28 45 197 51 256 9 17 -12 40 -36 50 -53 l19 -31 -6 115
c-9 182 -44 233 -159 233 -82 0 -137 -39 -172 -122 l-19 -44 -36 49 c-50 68
-74 121 -98 208 -30 108 -29 333 2 377 7 11 11 11 15 1 8 -21 129 -102 191
-127 107 -44 269 -69 447 -69 99 -1 187 4 230 13 91 18 226 65 292 102 29 16
55 29 57 29 3 0 10 -26 17 -57 26 -125 -28 -303 -125 -410 -26 -28 -101 -88
-167 -133 -66 -45 -136 -98 -156 -117 -33 -34 -83 -123 -83 -150 0 -17 20 -16
39 1 26 22 453 238 491 248 19 5 45 11 58 13 13 2 29 8 36 14 7 6 15 9 18 6 2
-3 29 3 59 14 30 10 56 19 59 19 25 4 195 65 204 73 6 5 18 9 28 9 10 0 18 5
18 10 0 6 5 10 11 10 6 0 45 16 87 36 68 32 112 58 212 123 14 9 37 23 53 30
15 8 27 18 27 23 0 4 6 8 13 8 14 0 140 101 245 197 35 32 74 68 88 79 13 12
24 24 24 26 0 3 17 24 38 45 48 52 62 69 93 118 15 22 38 54 53 70 14 17 26
35 26 40 0 6 14 30 30 55 17 25 45 74 63 110 32 65 32 65 32 220 0 85 -2 182
-4 215 -1 33 0 77 4 98 17 101 -104 480 -227 707 -123 226 -311 459 -510 632
-331 287 -765 478 -1203 528 -123 14 -440 11 -555 -5z m779 -872 c21 -22 93
-207 314 -808 158 -429 323 -877 367 -994 43 -118 78 -217 76 -219 -2 -2 -30
10 -62 26 -180 91 -522 172 -723 172 l-57 0 -164 508 c-174 538 -185 562 -244
562 -54 0 -71 -32 -150 -275 -41 -126 -115 -357 -166 -512 l-91 -283 -51 0
c-167 0 -488 -76 -702 -166 -44 -19 -84 -34 -88 -34 -4 0 4 30 18 68 14 37
176 476 360 976 184 499 341 921 349 936 8 16 27 38 41 49 26 21 35 21 486 21
l460 0 27 -27z"/>
</g>
</svg>
